<?xml version="1.0" encoding="UTF-8"?>
<svg width="25px" height="26px" viewBox="0 0 28 27" version="1.1" xmlns="http://www.w3.org/2000/svg" xmlns:xlink="http://www.w3.org/1999/xlink">
    <!-- Generator: Sketch 49.1 (51147) - http://www.bohemiancoding.com/sketch -->
    <title>Combined Shape Copy 9</title>
    <desc>Created with Sketch.</desc>
    <defs></defs>
    <g id="Deals-page" stroke="none" stroke-width="1" fill="none" fill-rule="evenodd">
        <g id="-Deals-(New)-Copy" transform="translate(-926.000000, -791.000000)" fill="#e30202" fill-rule="nonzero">
            <path d="M953.629106,793.93135 C953.866571,794.161534 954,794.473885 954,794.799595 C954,795.125306 953.866571,795.437656 953.629106,795.66784 L940.982975,807.939855 C940.745774,808.170296 940.423901,808.299777 940.088261,808.299777 C939.752621,808.299777 939.430749,808.170296 939.193548,807.939855 L934.135095,803.031049 C933.640959,802.551531 933.640959,801.774078 934.135095,801.294559 C934.629232,800.815041 935.430386,800.815041 935.924523,801.294559 L940.088261,805.33512 L951.839678,793.93135 C952.07688,793.70091 952.398752,793.571429 952.734392,793.571429 C953.070032,793.571429 953.391905,793.70091 953.629106,793.93135 Z M953.543556,801.80297 C953.7281,802.693842 953.821293,803.600257 953.821771,804.50895 C953.817413,810.601504 949.608175,815.936139 943.548302,817.529172 C937.488428,819.122205 931.07999,816.578768 927.907253,811.321416 C924.734517,806.064063 925.583913,799.395945 929.980372,795.046566 C934.37683,790.697188 941.230593,789.744637 946.708323,792.721679 C947.319446,793.053784 947.537428,793.803765 947.195199,794.396809 C946.85297,794.989854 946.080125,795.201387 945.469002,794.869282 C940.798243,792.335134 934.939124,793.300738 931.392347,797.189166 C927.845571,801.077593 927.56915,806.838547 930.72824,811.029979 C933.88733,815.22141 939.628636,816.711178 944.521846,814.609177 C949.415056,812.507176 952.138474,807.381174 951.064915,802.293851 C950.974554,801.864183 951.127271,801.420372 951.465538,801.129599 C951.803805,800.838825 952.276231,800.745264 952.704859,800.884159 C953.133486,801.023053 953.453196,801.373302 953.543556,801.80297 Z" id="Combined-Shape-Copy-9"></path>
        </g>
    </g>
</svg>